<svg width="1330" height="888" viewBox="0 0 1330 888" fill="none" xmlns="http://www.w3.org/2000/svg">
<g clip-path="url(#clip0_117_1100)">
<rect width="1330" height="888" rx="24" fill="#6772E5"/>
<rect x="884.575" y="-335.225" width="1082.67" height="590.97" rx="64.5572" transform="rotate(-11.6596 884.575 -335.225)" fill="#808AF2"/>
<mask id="mask0_117_1100" style="mask-type:luminance" maskUnits="userSpaceOnUse" x="1044" y="46" width="213" height="115">
<path d="M1256.15 46.8473L1044.3 46.6367L1044.22 160.788L1256.06 160.999L1256.15 46.8473Z" fill="white"/>
</mask>
<g mask="url(#mask0_117_1100)">
<path d="M1069.58 97.6958C1068.78 99.6699 1067.59 101.439 1066.1 102.889C1064.64 104.311 1062.95 105.448 1061.12 106.249C1059.3 107.049 1057.38 107.549 1055.42 107.73C1053 107.948 1050.95 107.78 1049.26 107.224C1047.77 106.732 1046.29 105.82 1044.83 104.489C1044.51 104.196 1044.49 103.679 1044.78 103.348L1050.35 96.9292C1050.65 96.5931 1051.14 96.5833 1051.48 96.8669C1051.92 97.2429 1052.41 97.5634 1052.93 97.8216C1053.73 98.1355 1054.59 98.2363 1055.43 98.1155C1057.08 97.9604 1058.38 97.3358 1059.35 96.2415C1060.31 95.1473 1060.79 93.5924 1060.79 91.5765L1060.81 63.7222C1060.81 63.2993 1061.11 62.947 1061.51 62.9106L1070.05 62.1212C1070.49 62.08 1070.88 62.456 1070.88 62.9344L1070.86 90.8911C1070.89 93.2301 1070.45 95.5493 1069.58 97.6958Z" fill="white"/>
<path d="M1107.73 93.5374C1106.94 95.5348 1105.8 97.3481 1104.36 98.8761C1102.91 100.412 1101.22 101.655 1099.35 102.544C1097.45 103.455 1095.42 104.013 1093.34 104.194C1091.33 104.404 1089.3 104.222 1087.36 103.655C1085.54 103.121 1083.84 102.186 1082.38 100.911C1080.94 99.641 1079.8 98.0253 1079.05 96.1948C1078.24 94.1986 1077.84 92.0402 1077.87 89.8647L1077.89 62.1295C1077.89 61.7068 1078.2 61.3545 1078.59 61.3179L1087.13 60.5257C1087.58 60.4843 1087.96 60.8604 1087.96 61.3389L1087.94 88.6857C1087.94 90.6993 1088.42 92.2266 1089.38 93.2674C1090.34 94.3116 1091.66 94.7501 1093.35 94.5961C1094.11 94.5533 1094.86 94.3484 1095.55 93.9932C1096.24 93.638 1096.86 93.1396 1097.37 92.5269C1098.36 91.3069 1098.86 89.6891 1098.87 87.6732L1098.89 60.1897C1098.89 59.767 1099.19 59.4147 1099.59 59.3781L1108.13 58.586C1108.58 58.5446 1108.96 58.9206 1108.96 59.3991L1108.94 86.991C1108.95 89.238 1108.54 91.4652 1107.73 93.5374Z" fill="white"/>
<path d="M1142.83 91.6699C1142.02 93.468 1140.86 95.0576 1139.43 96.3297C1137.91 97.6715 1136.2 98.7362 1134.36 99.4808C1132.38 100.29 1130.31 100.793 1128.2 100.975C1124.83 101.29 1121.88 101.142 1119.37 100.532C1117.08 99.9738 1114.97 98.8133 1113.21 97.1611C1112.9 96.8704 1112.89 96.3669 1113.17 96.0425L1118.61 89.7011C1118.89 89.374 1119.37 89.3502 1119.7 89.61C1120.7 90.3783 1121.85 90.8912 1123.07 91.1038C1124.78 91.4504 1126.53 91.537 1128.27 91.3606C1132.19 91.0003 1134.15 89.5042 1134.15 86.8723C1134.15 85.7628 1133.89 84.9246 1133.35 84.3579C1132.81 83.7909 1131.87 83.4886 1130.64 83.4378L1128.23 83.2929L1125.7 83.1579C1122.05 82.918 1119.31 81.8776 1117.47 80.0366C1115.59 78.1139 1114.65 75.2626 1114.66 71.4826C1114.63 69.548 1114.97 67.6282 1115.67 65.8446C1116.37 64.0609 1117.41 62.4523 1118.72 61.1205C1121.43 58.2816 1125.07 56.6502 1129.63 56.2264C1132.62 55.9512 1135.24 56.1194 1137.48 56.731C1139.46 57.2663 1141.3 58.2643 1142.86 59.6493C1143.19 59.9358 1143.21 60.452 1142.92 60.7827L1137.84 66.6863C1137.43 67.1583 1136.74 67.171 1136.25 66.8117C1135.48 66.261 1134.61 65.8918 1133.7 65.7356C1132.25 65.5385 1130.79 65.5192 1129.34 65.6783C1127.73 65.829 1126.5 66.3544 1125.65 67.2543C1125.27 67.6281 1124.95 68.0828 1124.74 68.5906C1124.52 69.0984 1124.4 69.6486 1124.39 70.2073C1124.38 70.5765 1124.45 70.9429 1124.59 71.2811C1124.73 71.6193 1124.93 71.921 1125.19 72.1653C1125.84 72.8041 1126.78 73.1483 1128.01 73.1981L1130.25 73.2964L1132.96 73.478C1136.56 73.6802 1139.25 74.6433 1141.01 76.3673C1143.04 78.3167 1144.06 81.4276 1144.05 85.6998C1144.07 87.7633 1143.65 89.8042 1142.83 91.6699Z" fill="white"/>
<path d="M1169.09 62.5428C1168.7 62.5794 1168.4 62.9317 1168.4 63.3544L1168.37 96.1318C1168.37 96.5545 1168.07 96.9068 1167.67 96.9434L1159.13 97.7355C1158.68 97.777 1158.3 97.4008 1158.3 96.9223L1158.33 64.4315C1158.33 63.953 1157.94 63.5769 1157.5 63.6184L1149.09 64.3982C1148.64 64.4395 1148.26 64.0636 1148.26 63.5851L1148.26 55.6045C1148.26 55.1818 1148.57 54.8295 1148.96 54.7929L1177.64 52.133C1178.09 52.0915 1178.47 52.4676 1178.47 52.9461L1178.47 60.9266C1178.47 61.3493 1178.16 61.7017 1177.77 61.7382L1169.09 62.5428Z" fill="white"/>
<path d="M1075.87 154.876C1073.49 157.373 1070.42 158.798 1066.66 159.152L1049.65 160.714C1049.2 160.755 1048.82 160.379 1048.82 159.901L1048.85 117.665C1048.85 117.242 1049.15 116.89 1049.55 116.853L1065.83 115.342C1070.02 114.955 1073.24 115.804 1075.51 117.888C1077.77 119.973 1078.9 122.955 1078.9 126.834C1078.9 129.013 1078.42 130.855 1077.46 132.36C1076.62 133.719 1075.59 134.928 1074.4 135.94C1074.99 136.277 1075.55 136.645 1076.1 137.045C1076.69 137.501 1077.21 138.045 1077.65 138.659C1078.21 139.449 1078.65 140.336 1078.94 141.284C1079.31 142.49 1079.48 143.754 1079.46 145.023C1079.44 149.092 1078.25 152.377 1075.87 154.876ZM1067.95 125.869C1067.37 125.226 1066.45 124.962 1065.19 125.078L1059.61 125.597C1059.22 125.633 1058.91 125.986 1058.91 126.408L1058.91 131.921C1058.91 132.4 1059.29 132.776 1059.74 132.735L1065.18 132.229C1066.45 132.111 1067.37 131.677 1067.94 130.926C1068.51 130.195 1068.82 129.27 1068.81 128.317C1068.82 127.869 1068.75 127.421 1068.61 127.001C1068.46 126.581 1068.24 126.196 1067.95 125.869ZM1068.48 142.72C1067.89 142.033 1066.96 141.75 1065.7 141.87L1059.6 142.434C1059.2 142.471 1058.9 142.823 1058.9 143.246L1058.89 149.312C1058.89 149.791 1059.28 150.167 1059.72 150.126L1065.69 149.573C1066.96 149.455 1067.89 148.989 1068.48 148.175C1069.07 147.37 1069.39 146.372 1069.37 145.348C1069.41 144.381 1069.09 143.438 1068.48 142.72Z" fill="white"/>
<path d="M1087.22 157.242C1086.77 157.283 1086.39 156.907 1086.39 156.429L1086.42 114.177C1086.42 113.754 1086.73 113.402 1087.12 113.365L1113.45 110.925C1113.89 110.883 1114.28 111.259 1114.28 111.738L1114.27 119.715C1114.27 120.138 1113.97 120.49 1113.57 120.527L1097.19 122.049C1096.79 122.085 1096.49 122.438 1096.49 122.86L1096.48 128.556C1096.48 129.034 1096.87 129.41 1097.31 129.369L1110.84 128.114C1111.29 128.073 1111.67 128.449 1111.67 128.927L1111.67 136.908C1111.67 137.33 1111.36 137.683 1110.97 137.719L1097.17 138.999C1096.78 139.036 1096.48 139.388 1096.48 139.811L1096.47 145.877C1096.47 146.355 1096.85 146.732 1097.3 146.69L1113.42 145.196C1113.87 145.155 1114.25 145.531 1114.25 146.009L1114.24 153.99C1114.24 154.412 1113.94 154.765 1113.55 154.801L1087.22 157.242Z" fill="white"/>
<path d="M1139.82 118.092C1139.43 118.128 1139.12 118.481 1139.12 118.903L1139.1 151.681C1139.1 152.103 1138.8 152.456 1138.4 152.492L1129.86 153.284C1129.41 153.326 1129.03 152.95 1129.03 152.471L1129.05 119.98C1129.05 119.502 1128.67 119.126 1128.22 119.167L1119.81 119.947C1119.37 119.988 1118.98 119.612 1118.98 119.134L1118.99 111.153C1118.99 110.731 1119.29 110.378 1119.69 110.342L1148.37 107.682C1148.82 107.64 1149.2 108.016 1149.2 108.495L1149.2 116.475C1149.2 116.898 1148.89 117.25 1148.5 117.287L1139.82 118.092Z" fill="white"/>
<path d="M1173.48 114.968C1173.09 115.005 1172.78 115.357 1172.78 115.78L1172.76 148.56C1172.76 148.983 1172.45 149.335 1172.06 149.372L1163.52 150.164C1163.07 150.206 1162.69 149.83 1162.69 149.351L1162.71 116.857C1162.71 116.378 1162.33 116.002 1161.88 116.044L1153.47 116.823C1153.03 116.865 1152.64 116.489 1152.64 116.01L1152.65 108.033C1152.65 107.611 1152.95 107.258 1153.35 107.222L1182.03 104.562C1182.48 104.52 1182.86 104.896 1182.86 105.375L1182.85 113.352C1182.85 113.775 1182.55 114.127 1182.16 114.164L1173.48 114.968Z" fill="white"/>
<path d="M1189.53 147.747C1189.08 147.789 1188.7 147.413 1188.7 146.934L1188.73 104.685C1188.73 104.263 1189.03 103.91 1189.43 103.874L1215.75 101.433C1216.2 101.392 1216.58 101.768 1216.58 102.247L1216.57 110.224C1216.57 110.646 1216.27 110.999 1215.87 111.035L1199.49 112.554C1199.09 112.591 1198.79 112.943 1198.79 113.366L1198.79 119.065C1198.79 119.543 1199.17 119.919 1199.62 119.878L1213.14 118.623C1213.59 118.581 1213.98 118.958 1213.97 119.436L1213.97 127.413C1213.97 127.836 1213.67 128.188 1213.27 128.225L1199.47 129.508C1199.08 129.544 1198.78 129.897 1198.78 130.319L1198.77 136.386C1198.77 136.864 1199.16 137.24 1199.6 137.199L1215.72 135.705C1216.17 135.663 1216.55 136.039 1216.55 136.518L1216.55 144.495C1216.55 144.918 1216.24 145.27 1215.85 145.307L1189.53 147.747Z" fill="white"/>
<path d="M1244.91 142.609C1244.6 142.639 1244.3 142.459 1244.16 142.157L1237.39 127.484C1237.25 127.182 1236.95 127.002 1236.63 127.032L1234.45 127.243C1234.06 127.281 1233.75 127.633 1233.75 128.054L1233.74 142.897C1233.74 143.32 1233.44 143.672 1233.05 143.709L1224.5 144.501C1224.06 144.542 1223.67 144.166 1223.67 143.688L1223.71 101.439C1223.71 101.017 1224.01 100.664 1224.4 100.628L1239.93 99.1883C1241.92 98.9666 1243.93 99.1667 1245.85 99.7771C1247.51 100.307 1249.02 101.243 1250.28 102.511C1251.46 103.722 1252.38 105.192 1252.98 106.819C1253.6 108.468 1253.91 110.227 1253.9 112.003C1253.95 114.569 1253.28 117.091 1251.97 119.24C1250.9 121.011 1249.49 122.519 1247.85 123.672C1247.51 123.913 1247.38 124.394 1247.57 124.781L1255.52 140.481C1255.78 140.997 1255.46 141.63 1254.92 141.681L1244.91 142.609ZM1242.66 109.938C1241.88 109.125 1240.81 108.781 1239.47 108.908L1234.49 109.362C1234.09 109.398 1233.79 109.751 1233.79 110.174L1233.78 117.412C1233.78 117.89 1234.17 118.266 1234.61 118.225L1239.48 117.774C1240.08 117.743 1240.68 117.584 1241.22 117.305C1241.77 117.027 1242.27 116.634 1242.67 116.151C1243.43 115.275 1243.85 114.125 1243.85 112.93C1243.86 112.37 1243.76 111.814 1243.56 111.298C1243.35 110.783 1243.05 110.32 1242.66 109.938Z" fill="white"/>
<path d="M1209.13 154.134L1255.37 149.845C1255.76 149.809 1256.07 149.457 1256.07 149.034L1256.07 147.36C1256.07 146.882 1255.68 146.506 1255.24 146.547L1209.13 150.823" fill="white"/>
<path d="M1179.14 156.864L1201.94 154.75C1202.34 154.713 1202.64 154.361 1202.64 153.939L1202.64 152.264C1202.64 151.786 1202.26 151.41 1201.81 151.451L1179.14 153.553" fill="white"/>
<path d="M1060.82 57.1194L1107.07 52.8307C1107.46 52.7941 1107.76 52.4419 1107.76 52.0194L1107.76 50.3452C1107.76 49.8669 1107.38 49.491 1106.93 49.5324L1060.83 53.8087" fill="white"/>
<path d="M1114.25 52.2166L1137.05 50.1027C1137.44 50.0662 1137.74 49.7139 1137.74 49.2913L1137.75 47.617C1137.75 47.1386 1137.36 46.7626 1136.92 46.804L1114.25 48.9055" fill="white"/>
</g>
<rect x="1109" y="691.07" width="346.746" height="388.163" rx="80.6917" transform="rotate(-12.8421 1109 691.07)" fill="#808AF2"/>
<rect x="125.774" y="246.369" width="250.865" height="59.75" rx="29.875" fill="#808AF2"/>
<path d="M172.686 269.012C173.915 270.223 174.891 271.666 175.559 273.257C176.227 274.848 176.573 276.556 176.576 278.282C176.58 280.007 176.242 281.717 175.581 283.311C174.92 284.905 173.95 286.352 172.727 287.569C171.213 289.078 169.416 290.275 167.439 291.089C165.462 291.904 163.345 292.321 161.207 292.316C158.831 292.321 156.483 291.806 154.328 290.807C152.173 289.808 150.263 288.348 148.732 286.532C155.111 291.801 164.611 291.47 170.599 285.543C171.558 284.598 172.319 283.472 172.838 282.23C173.357 280.989 173.625 279.657 173.625 278.311C173.625 276.965 173.357 275.633 172.838 274.392C172.319 273.15 171.558 272.024 170.599 271.08C166.564 267.085 160.023 267.085 155.988 271.08C155.577 271.484 155.251 271.967 155.028 272.499C154.805 273.031 154.69 273.602 154.69 274.179C154.69 274.756 154.805 275.327 155.028 275.859C155.251 276.391 155.577 276.874 155.988 277.279C156.822 278.102 157.947 278.563 159.119 278.563C160.291 278.563 161.415 278.102 162.25 277.279C162.528 277.005 162.903 276.851 163.294 276.851C163.684 276.851 164.059 277.005 164.337 277.279C164.474 277.414 164.582 277.575 164.657 277.752C164.731 277.929 164.769 278.119 164.769 278.311C164.769 278.503 164.731 278.693 164.657 278.87C164.582 279.048 164.474 279.208 164.337 279.343C162.947 280.714 161.072 281.483 159.119 281.483C157.166 281.483 155.292 280.714 153.901 279.343C153.217 278.668 152.674 277.864 152.303 276.978C151.932 276.091 151.741 275.139 151.741 274.178C151.741 273.217 151.932 272.266 152.303 271.379C152.674 270.492 153.217 269.688 153.901 269.013C159.087 263.877 167.498 263.877 172.686 269.013V269.012ZM161.207 260.172C163.582 260.167 165.93 260.682 168.085 261.681C170.24 262.681 172.15 264.14 173.681 265.957C167.301 260.688 157.8 261.02 151.815 266.944V266.946C150.856 267.89 150.095 269.016 149.576 270.258C149.056 271.499 148.789 272.832 148.789 274.177C148.789 275.523 149.056 276.856 149.576 278.097C150.095 279.339 150.856 280.465 151.815 281.409C155.848 285.405 162.389 285.405 166.424 281.409C166.835 281.005 167.161 280.522 167.383 279.99C167.606 279.458 167.721 278.887 167.721 278.31C167.721 277.733 167.606 277.162 167.383 276.63C167.161 276.098 166.835 275.616 166.424 275.211C165.589 274.388 164.465 273.927 163.293 273.927C162.121 273.927 160.996 274.388 160.162 275.211C159.884 275.485 159.509 275.639 159.118 275.639C158.728 275.639 158.353 275.485 158.075 275.211C157.938 275.076 157.83 274.915 157.756 274.738C157.681 274.561 157.643 274.37 157.643 274.178C157.643 273.986 157.681 273.796 157.756 273.619C157.83 273.441 157.938 273.281 158.075 273.146C159.466 271.775 161.34 271.006 163.293 271.006C165.246 271.006 167.12 271.775 168.511 273.146C169.195 273.821 169.739 274.625 170.11 275.511C170.481 276.398 170.672 277.35 170.672 278.311C170.672 279.272 170.481 280.223 170.11 281.11C169.739 281.997 169.195 282.801 168.511 283.476C163.324 288.612 154.914 288.612 149.726 283.476C148.495 282.262 147.518 280.817 146.85 279.223C146.183 277.629 145.838 275.919 145.836 274.191C145.835 272.463 146.176 270.752 146.841 269.157C147.505 267.562 148.48 266.114 149.708 264.899C152.764 261.863 156.899 260.163 161.207 260.172Z" fill="white"/>
<path d="M197.653 281.437H203.546V283.744H194.794V266.315H197.653V281.437ZM204.984 276.772C204.984 275.385 205.268 274.156 205.837 273.086C206.422 272.016 207.208 271.188 208.194 270.603C209.197 270.001 210.301 269.7 211.504 269.7C212.591 269.7 213.536 269.918 214.338 270.352C215.158 270.77 215.81 271.297 216.294 271.932V269.926H219.178V283.744H216.294V281.688C215.81 282.34 215.149 282.883 214.313 283.318C213.477 283.752 212.524 283.97 211.454 283.97C210.267 283.97 209.181 283.669 208.194 283.067C207.208 282.448 206.422 281.596 205.837 280.509C205.268 279.406 204.984 278.16 204.984 276.772ZM216.294 276.823C216.294 275.87 216.094 275.042 215.693 274.34C215.308 273.638 214.798 273.103 214.163 272.735C213.527 272.367 212.842 272.183 212.106 272.183C211.371 272.183 210.685 272.367 210.05 272.735C209.415 273.086 208.896 273.613 208.495 274.315C208.111 275 207.918 275.819 207.918 276.772C207.918 277.725 208.111 278.561 208.495 279.28C208.896 279.999 209.415 280.551 210.05 280.935C210.702 281.303 211.387 281.487 212.106 281.487C212.842 281.487 213.527 281.303 214.163 280.935C214.798 280.568 215.308 280.033 215.693 279.33C216.094 278.611 216.294 277.776 216.294 276.823ZM225.792 271.932C226.21 271.23 226.762 270.687 227.447 270.302C228.15 269.901 228.977 269.7 229.93 269.7V272.66H229.203C228.083 272.66 227.23 272.944 226.645 273.512C226.077 274.081 225.792 275.067 225.792 276.471V283.744H222.933V269.926H225.792V271.932ZM231.605 276.772C231.605 275.385 231.889 274.156 232.458 273.086C233.043 272.016 233.829 271.188 234.815 270.603C235.818 270.001 236.922 269.7 238.125 269.7C239.212 269.7 240.157 269.918 240.959 270.352C241.779 270.77 242.431 271.297 242.915 271.932V269.926H245.799V283.744H242.915V281.688C242.431 282.34 241.77 282.883 240.934 283.318C240.098 283.752 239.145 283.97 238.075 283.97C236.888 283.97 235.802 283.669 234.815 283.067C233.829 282.448 233.043 281.596 232.458 280.509C231.889 279.406 231.605 278.16 231.605 276.772ZM242.915 276.823C242.915 275.87 242.715 275.042 242.314 274.34C241.929 273.638 241.419 273.103 240.784 272.735C240.148 272.367 239.463 272.183 238.727 272.183C237.992 272.183 237.306 272.367 236.671 272.735C236.036 273.086 235.517 273.613 235.116 274.315C234.732 275 234.539 275.819 234.539 276.772C234.539 277.725 234.732 278.561 235.116 279.28C235.517 279.999 236.036 280.551 236.671 280.935C237.323 281.303 238.008 281.487 238.727 281.487C239.463 281.487 240.148 281.303 240.784 280.935C241.419 280.568 241.929 280.033 242.314 279.33C242.715 278.611 242.915 277.776 242.915 276.823ZM254.896 281.186L258.808 269.926H261.843L256.576 283.744H253.166L247.924 269.926H250.984L254.896 281.186ZM276.668 276.497C276.668 277.015 276.635 277.483 276.568 277.901H266.01C266.094 279.004 266.503 279.89 267.239 280.559C267.974 281.228 268.877 281.562 269.947 281.562C271.485 281.562 272.572 280.919 273.207 279.631H276.292C275.874 280.902 275.113 281.947 274.01 282.766C272.923 283.569 271.569 283.97 269.947 283.97C268.626 283.97 267.439 283.677 266.386 283.092C265.35 282.49 264.53 281.654 263.928 280.584C263.343 279.498 263.051 278.244 263.051 276.823C263.051 275.401 263.335 274.156 263.903 273.086C264.489 271.999 265.299 271.163 266.336 270.578C267.389 269.993 268.593 269.7 269.947 269.7C271.251 269.7 272.413 269.985 273.433 270.553C274.453 271.122 275.247 271.924 275.815 272.961C276.384 273.98 276.668 275.159 276.668 276.497ZM273.684 275.594C273.667 274.54 273.291 273.696 272.555 273.061C271.82 272.426 270.909 272.108 269.822 272.108C268.835 272.108 267.991 272.426 267.289 273.061C266.587 273.679 266.169 274.524 266.035 275.594H273.684ZM282.34 265.186V283.744H279.482V265.186H282.34ZM306.928 283.744H304.069L295.467 270.729V283.744H292.608V266.29H295.467L304.069 279.28V266.29H306.928V283.744ZM316.676 283.97C315.372 283.97 314.193 283.677 313.14 283.092C312.087 282.49 311.259 281.654 310.657 280.584C310.055 279.498 309.754 278.244 309.754 276.823C309.754 275.418 310.064 274.173 310.682 273.086C311.301 271.999 312.145 271.163 313.215 270.578C314.285 269.993 315.481 269.7 316.801 269.7C318.122 269.7 319.317 269.993 320.387 270.578C321.457 271.163 322.302 271.999 322.92 273.086C323.539 274.173 323.848 275.418 323.848 276.823C323.848 278.227 323.531 279.473 322.895 280.559C322.26 281.646 321.391 282.49 320.287 283.092C319.2 283.677 317.997 283.97 316.676 283.97ZM316.676 281.487C317.412 281.487 318.097 281.312 318.732 280.96C319.384 280.609 319.911 280.083 320.312 279.381C320.713 278.678 320.914 277.826 320.914 276.823C320.914 275.819 320.722 274.975 320.337 274.29C319.953 273.588 319.443 273.061 318.808 272.71C318.172 272.359 317.487 272.183 316.751 272.183C316.016 272.183 315.33 272.359 314.695 272.71C314.076 273.061 313.583 273.588 313.215 274.29C312.847 274.975 312.663 275.819 312.663 276.823C312.663 278.311 313.04 279.464 313.792 280.283C314.561 281.086 315.522 281.487 316.676 281.487ZM332.016 281.186L335.928 269.926H338.963L333.696 283.744H330.286L325.044 269.926H328.104L332.016 281.186ZM340.171 276.772C340.171 275.385 340.455 274.156 341.023 273.086C341.609 272.016 342.394 271.188 343.381 270.603C344.384 270.001 345.487 269.7 346.691 269.7C347.778 269.7 348.722 269.918 349.525 270.352C350.344 270.77 350.996 271.297 351.481 271.932V269.926H354.365V283.744H351.481V281.688C350.996 282.34 350.336 282.883 349.5 283.318C348.664 283.752 347.711 283.97 346.641 283.97C345.454 283.97 344.367 283.669 343.381 283.067C342.394 282.448 341.609 281.596 341.023 280.509C340.455 279.406 340.171 278.16 340.171 276.772ZM351.481 276.823C351.481 275.87 351.28 275.042 350.879 274.34C350.495 273.638 349.985 273.103 349.349 272.735C348.714 272.367 348.029 272.183 347.293 272.183C346.557 272.183 345.872 272.367 345.237 272.735C344.601 273.086 344.083 273.613 343.682 274.315C343.297 275 343.105 275.819 343.105 276.772C343.105 277.725 343.297 278.561 343.682 279.28C344.083 279.999 344.601 280.551 345.237 280.935C345.889 281.303 346.574 281.487 347.293 281.487C348.029 281.487 348.714 281.303 349.349 280.935C349.985 280.568 350.495 280.033 350.879 279.33C351.28 278.611 351.481 277.776 351.481 276.823Z" fill="white"/>
<path d="M137.884 381.521H149.525V388.382H128.996V351.897H137.884V381.521ZM151.997 373.829C151.997 370.85 152.552 368.234 153.661 365.982C154.804 363.729 156.346 361.997 158.286 360.784C160.226 359.572 162.392 358.965 164.783 358.965C166.827 358.965 168.611 359.381 170.136 360.213C171.695 361.044 172.89 362.136 173.722 363.487V359.381H182.609V388.382H173.722V384.276C172.856 385.627 171.643 386.719 170.084 387.55C168.559 388.382 166.775 388.798 164.731 388.798C162.375 388.798 160.226 388.191 158.286 386.979C156.346 385.731 154.804 383.981 153.661 381.729C152.552 379.443 151.997 376.809 151.997 373.829ZM173.722 373.881C173.722 371.664 173.098 369.914 171.851 368.632C170.638 367.35 169.148 366.709 167.381 366.709C165.614 366.709 164.107 367.35 162.86 368.632C161.647 369.88 161.041 371.612 161.041 373.829C161.041 376.047 161.647 377.814 162.86 379.131C164.107 380.413 165.614 381.054 167.381 381.054C169.148 381.054 170.638 380.413 171.851 379.131C173.098 377.849 173.722 376.099 173.722 373.881ZM197.926 364.215C198.966 362.621 200.265 361.373 201.824 360.473C203.383 359.537 205.116 359.069 207.021 359.069V368.476H204.579C202.361 368.476 200.698 368.961 199.589 369.932C198.481 370.867 197.926 372.53 197.926 374.921V388.382H189.039V359.381H197.926V364.215ZM209.502 373.829C209.502 370.85 210.057 368.234 211.165 365.982C212.309 363.729 213.851 361.997 215.791 360.784C217.731 359.572 219.897 358.965 222.288 358.965C224.332 358.965 226.116 359.381 227.641 360.213C229.2 361.044 230.395 362.136 231.227 363.487V359.381H240.114V388.382H231.227V384.276C230.361 385.627 229.148 386.719 227.589 387.55C226.064 388.382 224.28 388.798 222.236 388.798C219.879 388.798 217.731 388.191 215.791 386.979C213.851 385.731 212.309 383.981 211.165 381.729C210.057 379.443 209.502 376.809 209.502 373.829ZM231.227 373.881C231.227 371.664 230.603 369.914 229.356 368.632C228.143 367.35 226.653 366.709 224.886 366.709C223.119 366.709 221.612 367.35 220.365 368.632C219.152 369.88 218.546 371.612 218.546 373.829C218.546 376.047 219.152 377.814 220.365 379.131C221.612 380.413 223.119 381.054 224.886 381.054C226.653 381.054 228.143 380.413 229.356 379.131C230.603 377.849 231.227 376.099 231.227 373.881ZM259.589 380.066L265.878 359.381H275.337L265.046 388.382H254.08L243.789 359.381H253.3L259.589 380.066ZM306.415 373.414C306.415 374.245 306.363 375.111 306.259 376.012H286.146C286.284 377.814 286.856 379.2 287.861 380.17C288.9 381.106 290.165 381.573 291.655 381.573C293.872 381.573 295.414 380.638 296.28 378.767H305.739C305.254 380.673 304.371 382.388 303.089 383.912C301.841 385.437 300.265 386.632 298.359 387.498C296.454 388.365 294.323 388.798 291.967 388.798C289.125 388.798 286.596 388.191 284.379 386.979C282.161 385.766 280.429 384.033 279.181 381.781C277.934 379.529 277.31 376.896 277.31 373.881C277.31 370.867 277.917 368.234 279.129 365.982C280.377 363.729 282.109 361.997 284.327 360.784C286.544 359.572 289.091 358.965 291.967 358.965C294.773 358.965 297.268 359.554 299.451 360.732C301.634 361.91 303.331 363.591 304.544 365.774C305.791 367.957 306.415 370.503 306.415 373.414ZM297.32 371.075C297.32 369.55 296.8 368.338 295.761 367.437C294.721 366.536 293.422 366.086 291.863 366.086C290.373 366.086 289.108 366.519 288.069 367.385C287.064 368.251 286.44 369.481 286.198 371.075H297.32ZM319.991 349.922V388.382H311.104V349.922H319.991ZM370.084 388.382H361.197L346.332 365.878V388.382H337.445V351.897H346.332L361.197 374.505V351.897H370.084V388.382ZM389.727 388.798C386.886 388.798 384.322 388.191 382.035 386.979C379.783 385.766 377.999 384.033 376.682 381.781C375.4 379.529 374.759 376.896 374.759 373.881C374.759 370.902 375.417 368.286 376.734 366.034C378.051 363.747 379.852 361.997 382.139 360.784C384.426 359.572 386.99 358.965 389.831 358.965C392.672 358.965 395.236 359.572 397.523 360.784C399.81 361.997 401.612 363.747 402.928 366.034C404.245 368.286 404.903 370.902 404.903 373.881C404.903 376.861 404.228 379.495 402.876 381.781C401.56 384.033 399.741 385.766 397.419 386.979C395.132 388.191 392.568 388.798 389.727 388.798ZM389.727 381.106C391.425 381.106 392.863 380.482 394.041 379.235C395.254 377.987 395.86 376.203 395.86 373.881C395.86 371.56 395.271 369.776 394.093 368.528C392.949 367.281 391.529 366.657 389.831 366.657C388.099 366.657 386.661 367.281 385.517 368.528C384.374 369.741 383.802 371.525 383.802 373.881C383.802 376.203 384.357 377.987 385.465 379.235C386.609 380.482 388.029 381.106 389.727 381.106ZM422.663 380.066L428.952 359.381H438.411L428.12 388.382H417.154L406.864 359.381H416.375L422.663 380.066ZM440.385 373.829C440.385 370.85 440.939 368.234 442.048 365.982C443.191 363.729 444.733 361.997 446.673 360.784C448.614 359.572 450.779 358.965 453.17 358.965C455.214 358.965 456.999 359.381 458.523 360.213C460.082 361.044 461.278 362.136 462.109 363.487V359.381H470.997V388.382H462.109V384.276C461.243 385.627 460.03 386.719 458.471 387.55C456.947 388.382 455.162 388.798 453.118 388.798C450.762 388.798 448.614 388.191 446.673 386.979C444.733 385.731 443.191 383.981 442.048 381.729C440.939 379.443 440.385 376.809 440.385 373.829ZM462.109 373.881C462.109 371.664 461.486 369.914 460.238 368.632C459.026 367.35 457.536 366.709 455.769 366.709C454.002 366.709 452.494 367.35 451.247 368.632C450.034 369.88 449.428 371.612 449.428 373.829C449.428 376.047 450.034 377.814 451.247 379.131C452.494 380.413 454.002 381.054 455.769 381.054C457.536 381.054 459.026 380.413 460.238 379.131C461.486 377.849 462.109 376.099 462.109 373.881ZM497.327 381.521H508.969V388.382H488.44V351.897H497.327V381.521ZM517.678 356.367C516.119 356.367 514.837 355.916 513.832 355.015C512.862 354.08 512.377 352.936 512.377 351.585C512.377 350.199 512.862 349.056 513.832 348.155C514.837 347.219 516.119 346.752 517.678 346.752C519.202 346.752 520.45 347.219 521.42 348.155C522.425 349.056 522.927 350.199 522.927 351.585C522.927 352.936 522.425 354.08 521.42 355.015C520.45 355.916 519.202 356.367 517.678 356.367ZM522.095 359.381V388.382H513.208V359.381H522.095ZM546.207 359.069C549.602 359.069 552.305 360.178 554.314 362.396C556.359 364.578 557.381 367.593 557.381 371.439V388.382H548.545V372.634C548.545 370.694 548.043 369.187 547.038 368.113C546.033 367.038 544.682 366.501 542.984 366.501C541.287 366.501 539.935 367.038 538.931 368.113C537.926 369.187 537.423 370.694 537.423 372.634V388.382H528.536V359.381H537.423V363.227C538.324 361.945 539.537 360.94 541.061 360.213C542.586 359.45 544.301 359.069 546.207 359.069ZM581.279 388.382L572.444 376.22V388.382H563.557V349.922H572.444V371.179L581.227 359.381H592.194L580.136 373.933L592.298 388.382H581.279ZM607.482 388.798C604.953 388.798 602.701 388.365 600.726 387.498C598.751 386.632 597.191 385.454 596.048 383.964C594.905 382.44 594.264 380.742 594.125 378.871H602.908C603.012 379.876 603.48 380.69 604.312 381.314C605.143 381.937 606.165 382.249 607.378 382.249C608.487 382.249 609.336 382.041 609.925 381.625C610.548 381.175 610.86 380.603 610.86 379.91C610.86 379.079 610.427 378.472 609.561 378.091C608.695 377.675 607.291 377.225 605.351 376.74C603.272 376.255 601.54 375.752 600.154 375.233C598.768 374.678 597.573 373.829 596.568 372.686C595.563 371.508 595.061 369.932 595.061 367.957C595.061 366.293 595.511 364.786 596.412 363.435C597.347 362.049 598.699 360.958 600.466 360.161C602.267 359.364 604.398 358.965 606.858 358.965C610.496 358.965 613.355 359.866 615.434 361.668C617.547 363.47 618.76 365.86 619.072 368.84H610.86C610.722 367.835 610.271 367.038 609.509 366.449C608.781 365.86 607.811 365.566 606.599 365.566C605.559 365.566 604.762 365.774 604.208 366.19C603.653 366.571 603.376 367.108 603.376 367.801C603.376 368.632 603.809 369.256 604.676 369.672C605.576 370.087 606.962 370.503 608.833 370.919C610.982 371.473 612.731 372.028 614.083 372.582C615.434 373.102 616.612 373.968 617.617 375.181C618.656 376.359 619.193 377.953 619.228 379.962C619.228 381.66 618.743 383.185 617.773 384.536C616.837 385.853 615.469 386.892 613.667 387.654C611.9 388.416 609.838 388.798 607.482 388.798Z" fill="white"/>
<path d="M163.187 483.192C163.55 483.577 163.745 484.092 163.729 484.621C163.713 485.15 163.487 485.652 163.102 486.015L141.98 505.923C141.549 506.328 140.977 506.549 140.385 506.538C139.794 506.527 139.23 506.285 138.815 505.864L131.677 498.619C131.488 498.433 131.337 498.212 131.235 497.968C131.132 497.723 131.079 497.461 131.079 497.196C131.079 496.931 131.131 496.669 131.234 496.424C131.336 496.179 131.486 495.958 131.674 495.772C131.863 495.586 132.087 495.439 132.333 495.34C132.579 495.242 132.842 495.193 133.107 495.197C133.372 495.201 133.633 495.257 133.876 495.363C134.119 495.469 134.338 495.623 134.521 495.814L140.472 501.853L160.364 483.106C160.749 482.743 161.264 482.548 161.793 482.564C162.322 482.58 162.824 482.806 163.187 483.192Z" fill="white"/>
<path d="M198.752 485.14V492.648H206.937V495.065H198.752V502.798H207.903V505.215H195.82V482.723H207.903V485.14H198.752ZM211.245 496.321C211.245 494.517 211.61 492.938 212.34 491.584C213.071 490.21 214.069 489.146 215.337 488.394C216.626 487.643 218.054 487.267 219.623 487.267C221.169 487.267 222.512 487.6 223.65 488.266C224.789 488.931 225.638 489.769 226.196 490.779V487.557H229.161V505.215H226.196V501.928C225.616 502.959 224.746 503.819 223.586 504.506C222.447 505.172 221.116 505.505 219.59 505.505C218.022 505.505 216.604 505.118 215.337 504.345C214.069 503.571 213.071 502.487 212.34 501.09C211.61 499.694 211.245 498.104 211.245 496.321ZM226.196 496.354C226.196 495.022 225.928 493.862 225.39 492.873C224.853 491.885 224.123 491.133 223.199 490.618C222.297 490.081 221.298 489.812 220.203 489.812C219.107 489.812 218.108 490.07 217.206 490.586C216.304 491.101 215.584 491.853 215.047 492.841C214.51 493.829 214.241 494.989 214.241 496.321C214.241 497.675 214.51 498.856 215.047 499.866C215.584 500.854 216.304 501.617 217.206 502.154C218.108 502.669 219.107 502.927 220.203 502.927C221.298 502.927 222.297 502.669 223.199 502.154C224.123 501.617 224.853 500.854 225.39 499.866C225.928 498.856 226.196 497.685 226.196 496.354ZM240.367 505.505C239.014 505.505 237.8 505.279 236.726 504.828C235.652 504.356 234.803 503.711 234.18 502.895C233.557 502.057 233.214 501.101 233.149 500.027H236.178C236.264 500.908 236.672 501.627 237.403 502.186C238.155 502.744 239.132 503.024 240.335 503.024C241.452 503.024 242.333 502.777 242.977 502.283C243.622 501.788 243.944 501.165 243.944 500.414C243.944 499.64 243.6 499.071 242.913 498.706C242.225 498.319 241.162 497.943 239.723 497.578C238.412 497.234 237.338 496.891 236.5 496.547C235.684 496.182 234.975 495.655 234.374 494.968C233.794 494.259 233.504 493.335 233.504 492.197C233.504 491.294 233.772 490.467 234.309 489.716C234.846 488.964 235.609 488.373 236.597 487.943C237.585 487.492 238.713 487.267 239.98 487.267C241.935 487.267 243.514 487.761 244.717 488.749C245.92 489.737 246.565 491.09 246.651 492.809H243.718C243.654 491.885 243.278 491.144 242.591 490.586C241.925 490.027 241.022 489.748 239.884 489.748C238.831 489.748 237.993 489.973 237.37 490.424C236.747 490.876 236.436 491.466 236.436 492.197C236.436 492.777 236.619 493.26 236.984 493.647C237.37 494.012 237.843 494.313 238.402 494.549C238.982 494.764 239.776 495.011 240.786 495.29C242.053 495.634 243.085 495.978 243.879 496.321C244.674 496.644 245.351 497.138 245.91 497.804C246.49 498.469 246.79 499.34 246.812 500.414C246.812 501.38 246.543 502.25 246.006 503.024C245.469 503.797 244.707 504.409 243.718 504.86C242.752 505.29 241.635 505.505 240.367 505.505ZM252.466 484.689C251.907 484.689 251.435 484.495 251.048 484.109C250.661 483.722 250.468 483.249 250.468 482.691C250.468 482.132 250.661 481.66 251.048 481.273C251.435 480.886 251.907 480.693 252.466 480.693C253.003 480.693 253.454 480.886 253.819 481.273C254.206 481.66 254.399 482.132 254.399 482.691C254.399 483.249 254.206 483.722 253.819 484.109C253.454 484.495 253.003 484.689 252.466 484.689ZM253.883 487.557V505.215H250.951V487.557H253.883ZM261.813 481.37V505.215H258.881V481.37H261.813ZM282.02 487.557L271.387 513.528H268.358L271.838 505.022L264.716 487.557H267.971L273.513 501.864L278.991 487.557H282.02ZM292.463 496.321C292.463 494.517 292.828 492.938 293.559 491.584C294.289 490.21 295.288 489.146 296.555 488.394C297.844 487.643 299.273 487.267 300.841 487.267C302.388 487.267 303.73 487.6 304.869 488.266C306.007 488.931 306.856 489.769 307.415 490.779V487.557H310.379V505.215H307.415V501.928C306.834 502.959 305.964 503.819 304.804 504.506C303.666 505.172 302.334 505.505 300.809 505.505C299.241 505.505 297.823 505.118 296.555 504.345C295.288 503.571 294.289 502.487 293.559 501.09C292.828 499.694 292.463 498.104 292.463 496.321ZM307.415 496.354C307.415 495.022 307.146 493.862 306.609 492.873C306.072 491.885 305.341 491.133 304.418 490.618C303.516 490.081 302.517 489.812 301.421 489.812C300.325 489.812 299.327 490.07 298.424 490.586C297.522 491.101 296.802 491.853 296.265 492.841C295.728 493.829 295.46 494.989 295.46 496.321C295.46 497.675 295.728 498.856 296.265 499.866C296.802 500.854 297.522 501.617 298.424 502.154C299.327 502.669 300.325 502.927 301.421 502.927C302.517 502.927 303.516 502.669 304.418 502.154C305.341 501.617 306.072 500.854 306.609 499.866C307.146 498.856 307.415 497.685 307.415 496.354ZM314.239 496.321C314.239 494.517 314.604 492.938 315.334 491.584C316.065 490.21 317.064 489.146 318.331 488.394C319.62 487.643 321.059 487.267 322.649 487.267C324.024 487.267 325.302 487.589 326.483 488.233C327.665 488.856 328.567 489.683 329.19 490.714V481.37H332.155V505.215H329.19V501.896C328.61 502.948 327.751 503.819 326.612 504.506C325.474 505.172 324.142 505.505 322.617 505.505C321.049 505.505 319.62 505.118 318.331 504.345C317.064 503.571 316.065 502.487 315.334 501.09C314.604 499.694 314.239 498.104 314.239 496.321ZM329.19 496.354C329.19 495.022 328.922 493.862 328.385 492.873C327.848 491.885 327.117 491.133 326.193 490.618C325.291 490.081 324.292 489.812 323.197 489.812C322.101 489.812 321.102 490.07 320.2 490.586C319.298 491.101 318.578 491.853 318.041 492.841C317.504 493.829 317.235 494.989 317.235 496.321C317.235 497.675 317.504 498.856 318.041 499.866C318.578 500.854 319.298 501.617 320.2 502.154C321.102 502.669 322.101 502.927 323.197 502.927C324.292 502.927 325.291 502.669 326.193 502.154C327.117 501.617 327.848 500.854 328.385 499.866C328.922 498.856 329.19 497.685 329.19 496.354ZM336.014 496.321C336.014 494.517 336.38 492.938 337.11 491.584C337.84 490.21 338.839 489.146 340.107 488.394C341.396 487.643 342.835 487.267 344.425 487.267C345.8 487.267 347.078 487.589 348.259 488.233C349.441 488.856 350.343 489.683 350.966 490.714V481.37H353.93V505.215H350.966V501.896C350.386 502.948 349.527 503.819 348.388 504.506C347.25 505.172 345.918 505.505 344.392 505.505C342.824 505.505 341.396 505.118 340.107 504.345C338.839 503.571 337.84 502.487 337.11 501.09C336.38 499.694 336.014 498.104 336.014 496.321ZM350.966 496.354C350.966 495.022 350.697 493.862 350.16 492.873C349.623 491.885 348.893 491.133 347.969 490.618C347.067 490.081 346.068 489.812 344.972 489.812C343.877 489.812 342.878 490.07 341.976 490.586C341.073 491.101 340.354 491.853 339.817 492.841C339.28 493.829 339.011 494.989 339.011 496.321C339.011 497.675 339.28 498.856 339.817 499.866C340.354 500.854 341.073 501.617 341.976 502.154C342.878 502.669 343.877 502.927 344.972 502.927C346.068 502.927 347.067 502.669 347.969 502.154C348.893 501.617 349.623 500.854 350.16 499.866C350.697 498.856 350.966 497.685 350.966 496.354ZM370.409 481.37V505.215H367.477V481.37H370.409ZM376.921 484.689C376.362 484.689 375.89 484.495 375.503 484.109C375.116 483.722 374.923 483.249 374.923 482.691C374.923 482.132 375.116 481.66 375.503 481.273C375.89 480.886 376.362 480.693 376.921 480.693C377.458 480.693 377.909 480.886 378.274 481.273C378.661 481.66 378.854 482.132 378.854 482.691C378.854 483.249 378.661 483.722 378.274 484.109C377.909 484.495 377.458 484.689 376.921 484.689ZM378.339 487.557V505.215H375.406V487.557H378.339ZM391.94 487.234C394.088 487.234 395.828 487.89 397.16 489.2C398.492 490.489 399.158 492.358 399.158 494.807V505.215H396.258V495.226C396.258 493.464 395.817 492.122 394.937 491.198C394.056 490.253 392.853 489.78 391.328 489.78C389.781 489.78 388.546 490.263 387.622 491.23C386.72 492.197 386.269 493.604 386.269 495.451V505.215H383.336V487.557H386.269V490.07C386.849 489.168 387.633 488.47 388.621 487.976C389.631 487.481 390.737 487.234 391.94 487.234ZM413.808 505.215L406.88 497.417V505.215H403.948V481.37H406.88V495.387L413.679 487.557H417.771L409.458 496.354L417.804 505.215H413.808ZM426.783 505.505C425.429 505.505 424.215 505.279 423.141 504.828C422.067 504.356 421.219 503.711 420.596 502.895C419.973 502.057 419.629 501.101 419.565 500.027H422.594C422.679 500.908 423.088 501.627 423.818 502.186C424.57 502.744 425.547 503.024 426.75 503.024C427.867 503.024 428.748 502.777 429.393 502.283C430.037 501.788 430.359 501.165 430.359 500.414C430.359 499.64 430.016 499.071 429.328 498.706C428.641 498.319 427.577 497.943 426.138 497.578C424.828 497.234 423.754 496.891 422.916 496.547C422.099 496.182 421.391 495.655 420.789 494.968C420.209 494.259 419.919 493.335 419.919 492.197C419.919 491.294 420.188 490.467 420.725 489.716C421.262 488.964 422.024 488.373 423.012 487.943C424.001 487.492 425.128 487.267 426.396 487.267C428.351 487.267 429.93 487.761 431.133 488.749C432.336 489.737 432.98 491.09 433.066 492.809H430.134C430.069 491.885 429.693 491.144 429.006 490.586C428.34 490.027 427.438 489.748 426.299 489.748C425.247 489.748 424.409 489.973 423.786 490.424C423.163 490.876 422.851 491.466 422.851 492.197C422.851 492.777 423.034 493.26 423.399 493.647C423.786 494.012 424.258 494.313 424.817 494.549C425.397 494.764 426.192 495.011 427.201 495.29C428.469 495.634 429.5 495.978 430.295 496.321C431.09 496.644 431.766 497.138 432.325 497.804C432.905 498.469 433.206 499.34 433.227 500.414C433.227 501.38 432.959 502.25 432.422 503.024C431.884 503.797 431.122 504.409 430.134 504.86C429.167 505.29 428.05 505.505 426.783 505.505ZM449.534 489.973V500.381C449.534 501.241 449.717 501.853 450.082 502.218C450.447 502.562 451.081 502.734 451.983 502.734H454.142V505.215H451.5C449.867 505.215 448.642 504.839 447.826 504.087C447.01 503.335 446.602 502.1 446.602 500.381V489.973H444.314V487.557H446.602V483.11H449.534V487.557H454.142V489.973H449.534ZM465.396 505.505C463.742 505.505 462.238 505.129 460.885 504.377C459.553 503.625 458.5 502.562 457.727 501.187C456.975 499.791 456.599 498.179 456.599 496.354C456.599 494.549 456.986 492.959 457.759 491.584C458.554 490.188 459.628 489.125 460.981 488.394C462.335 487.643 463.849 487.267 465.525 487.267C467.201 487.267 468.715 487.643 470.068 488.394C471.422 489.125 472.485 490.177 473.258 491.552C474.053 492.927 474.451 494.528 474.451 496.354C474.451 498.179 474.043 499.791 473.226 501.187C472.431 502.562 471.347 503.625 469.972 504.377C468.597 505.129 467.072 505.505 465.396 505.505ZM465.396 502.927C466.449 502.927 467.437 502.68 468.361 502.186C469.284 501.692 470.025 500.951 470.584 499.962C471.164 498.974 471.454 497.771 471.454 496.354C471.454 494.936 471.175 493.733 470.616 492.745C470.058 491.756 469.327 491.026 468.425 490.553C467.523 490.059 466.545 489.812 465.493 489.812C464.419 489.812 463.43 490.059 462.528 490.553C461.647 491.026 460.939 491.756 460.401 492.745C459.864 493.733 459.596 494.936 459.596 496.354C459.596 497.793 459.854 499.007 460.369 499.995C460.906 500.983 461.615 501.724 462.496 502.218C463.377 502.691 464.343 502.927 465.396 502.927ZM489.829 502.83H497.692V505.215H486.897V482.755H489.829V502.83ZM499.71 496.321C499.71 494.517 500.075 492.938 500.806 491.584C501.536 490.21 502.535 489.146 503.802 488.394C505.091 487.643 506.52 487.267 508.088 487.267C509.635 487.267 510.977 487.6 512.116 488.266C513.254 488.931 514.103 489.769 514.662 490.779V487.557H517.626V505.215H514.662V501.928C514.082 502.959 513.212 503.819 512.051 504.506C510.913 505.172 509.581 505.505 508.056 505.505C506.488 505.505 505.07 505.118 503.802 504.345C502.535 503.571 501.536 502.487 500.806 501.09C500.075 499.694 499.71 498.104 499.71 496.321ZM514.662 496.354C514.662 495.022 514.393 493.862 513.856 492.873C513.319 491.885 512.589 491.133 511.665 490.618C510.763 490.081 509.764 489.812 508.668 489.812C507.572 489.812 506.574 490.07 505.671 490.586C504.769 491.101 504.049 491.853 503.512 492.841C502.975 493.829 502.707 494.989 502.707 496.321C502.707 497.675 502.975 498.856 503.512 499.866C504.049 500.854 504.769 501.617 505.671 502.154C506.574 502.669 507.572 502.927 508.668 502.927C509.764 502.927 510.763 502.669 511.665 502.154C512.589 501.617 513.319 500.854 513.856 499.866C514.393 498.856 514.662 497.685 514.662 496.354ZM525.514 490.424C526.029 489.415 526.76 488.631 527.705 488.072C528.672 487.514 529.842 487.234 531.217 487.234V490.263H530.444C527.157 490.263 525.514 492.046 525.514 495.612V505.215H522.581V487.557H525.514V490.424ZM533.507 496.321C533.507 494.517 533.872 492.938 534.602 491.584C535.332 490.21 536.331 489.146 537.599 488.394C538.888 487.643 540.316 487.267 541.884 487.267C543.431 487.267 544.774 487.6 545.912 488.266C547.051 488.931 547.899 489.769 548.458 490.779V487.557H551.423V505.215H548.458V501.928C547.878 502.959 547.008 503.819 545.848 504.506C544.709 505.172 543.377 505.505 541.852 505.505C540.284 505.505 538.866 505.118 537.599 504.345C536.331 503.571 535.332 502.487 534.602 501.09C533.872 499.694 533.507 498.104 533.507 496.321ZM548.458 496.354C548.458 495.022 548.189 493.862 547.652 492.873C547.115 491.885 546.385 491.133 545.461 490.618C544.559 490.081 543.56 489.812 542.465 489.812C541.369 489.812 540.37 490.07 539.468 490.586C538.566 491.101 537.846 491.853 537.309 492.841C536.772 493.829 536.503 494.989 536.503 496.321C536.503 497.675 536.772 498.856 537.309 499.866C537.846 500.854 538.566 501.617 539.468 502.154C540.37 502.669 541.369 502.927 542.465 502.927C543.56 502.927 544.559 502.669 545.461 502.154C546.385 501.617 547.115 500.854 547.652 499.866C548.189 498.856 548.458 497.685 548.458 496.354ZM562.951 502.508L568.429 487.557H571.555L564.627 505.215H561.211L554.283 487.557H557.441L562.951 502.508ZM590.552 495.709C590.552 496.268 590.52 496.858 590.455 497.481H576.342C576.449 499.221 577.04 500.585 578.114 501.574C579.209 502.54 580.53 503.024 582.077 503.024C583.345 503.024 584.397 502.734 585.235 502.154C586.094 501.552 586.696 500.757 587.04 499.769H590.197C589.725 501.466 588.78 502.852 587.362 503.926C585.944 504.979 584.182 505.505 582.077 505.505C580.402 505.505 578.898 505.129 577.566 504.377C576.256 503.625 575.224 502.562 574.473 501.187C573.721 499.791 573.345 498.179 573.345 496.354C573.345 494.528 573.71 492.927 574.44 491.552C575.171 490.177 576.191 489.125 577.502 488.394C578.833 487.643 580.359 487.267 582.077 487.267C583.753 487.267 585.235 487.632 586.524 488.362C587.813 489.093 588.801 490.102 589.489 491.391C590.197 492.659 590.552 494.098 590.552 495.709ZM587.523 495.097C587.523 493.98 587.276 493.024 586.782 492.229C586.288 491.413 585.611 490.8 584.752 490.392C583.914 489.963 582.979 489.748 581.948 489.748C580.466 489.748 579.199 490.22 578.146 491.166C577.115 492.111 576.524 493.421 576.374 495.097H587.523ZM597.355 481.37V505.215H594.422V481.37H597.355ZM628.601 505.215H625.669L613.875 487.331V505.215H610.943V482.723H613.875L625.669 500.575V482.723H628.601V505.215ZM641.301 505.505C639.647 505.505 638.143 505.129 636.79 504.377C635.458 503.625 634.405 502.562 633.632 501.187C632.88 499.791 632.504 498.179 632.504 496.354C632.504 494.549 632.891 492.959 633.664 491.584C634.459 490.188 635.533 489.125 636.887 488.394C638.24 487.643 639.754 487.267 641.43 487.267C643.106 487.267 644.62 487.643 645.973 488.394C647.327 489.125 648.39 490.177 649.164 491.552C649.958 492.927 650.356 494.528 650.356 496.354C650.356 498.179 649.948 499.791 649.131 501.187C648.337 502.562 647.252 503.625 645.877 504.377C644.502 505.129 642.977 505.505 641.301 505.505ZM641.301 502.927C642.354 502.927 643.342 502.68 644.266 502.186C645.189 501.692 645.931 500.951 646.489 499.962C647.069 498.974 647.359 497.771 647.359 496.354C647.359 494.936 647.08 493.733 646.521 492.745C645.963 491.756 645.232 491.026 644.33 490.553C643.428 490.059 642.45 489.812 641.398 489.812C640.324 489.812 639.336 490.059 638.433 490.553C637.553 491.026 636.844 491.756 636.307 492.745C635.77 493.733 635.501 494.936 635.501 496.354C635.501 497.793 635.759 499.007 636.274 499.995C636.811 500.983 637.52 501.724 638.401 502.218C639.282 502.691 640.249 502.927 641.301 502.927ZM660.785 502.508L666.263 487.557H669.388L662.46 505.215H659.045L652.117 487.557H655.275L660.785 502.508ZM671.178 496.321C671.178 494.517 671.543 492.938 672.274 491.584C673.004 490.21 674.003 489.146 675.271 488.394C676.559 487.643 677.988 487.267 679.556 487.267C681.103 487.267 682.446 487.6 683.584 488.266C684.723 488.931 685.571 489.769 686.13 490.779V487.557H689.094V505.215H686.13V501.928C685.55 502.959 684.68 503.819 683.52 504.506C682.381 505.172 681.049 505.505 679.524 505.505C677.956 505.505 676.538 505.118 675.271 504.345C674.003 503.571 673.004 502.487 672.274 501.09C671.543 499.694 671.178 498.104 671.178 496.321ZM686.13 496.354C686.13 495.022 685.861 493.862 685.324 492.873C684.787 491.885 684.057 491.133 683.133 490.618C682.231 490.081 681.232 489.812 680.136 489.812C679.041 489.812 678.042 490.07 677.139 490.586C676.237 491.101 675.518 491.853 674.981 492.841C674.443 493.829 674.175 494.989 674.175 496.321C674.175 497.675 674.443 498.856 674.981 499.866C675.518 500.854 676.237 501.617 677.139 502.154C678.042 502.669 679.041 502.927 680.136 502.927C681.232 502.927 682.231 502.669 683.133 502.154C684.057 501.617 684.787 500.854 685.324 499.866C685.861 498.856 686.13 497.685 686.13 496.354Z" fill="white"/>
<path d="M163.187 545.81C163.55 546.196 163.745 546.71 163.729 547.239C163.713 547.769 163.487 548.27 163.102 548.633L141.98 568.541C141.549 568.946 140.977 569.167 140.385 569.156C139.794 569.145 139.23 568.903 138.815 568.482L131.677 561.237C131.488 561.052 131.337 560.83 131.235 560.586C131.132 560.341 131.079 560.079 131.079 559.814C131.079 559.549 131.131 559.287 131.234 559.042C131.336 558.798 131.486 558.576 131.674 558.39C131.863 558.204 132.087 558.057 132.333 557.958C132.579 557.86 132.842 557.811 133.107 557.815C133.372 557.819 133.633 557.876 133.876 557.982C134.119 558.088 134.338 558.241 134.521 558.433L140.472 564.471L160.364 545.725C160.749 545.362 161.264 545.167 161.793 545.183C162.322 545.199 162.824 545.424 163.187 545.81Z" fill="white"/>
<path d="M198.752 547.757V555.265H206.937V557.682H198.752V565.415H207.903V567.832H195.82V545.34H207.903V547.757H198.752ZM221.556 567.832L217.367 561.259L213.339 567.832H210.278L215.981 559.067L210.278 550.174H213.597L217.786 556.715L221.782 550.174H224.843L219.171 558.906L224.875 567.832H221.556ZM231.336 552.591V562.999C231.336 563.858 231.519 564.47 231.884 564.835C232.249 565.179 232.883 565.351 233.785 565.351H235.944V567.832H233.302C231.669 567.832 230.445 567.456 229.628 566.704C228.812 565.952 228.404 564.717 228.404 562.999V552.591H226.116V550.174H228.404V545.727H231.336V550.174H235.944V552.591H231.336ZM255.608 558.326C255.608 558.885 255.576 559.476 255.512 560.099H241.398C241.505 561.839 242.096 563.203 243.17 564.191C244.266 565.158 245.587 565.641 247.134 565.641C248.401 565.641 249.454 565.351 250.292 564.771C251.151 564.169 251.752 563.375 252.096 562.386H255.254C254.781 564.083 253.836 565.469 252.418 566.543C251.001 567.596 249.239 568.122 247.134 568.122C245.458 568.122 243.954 567.746 242.623 566.994C241.312 566.242 240.281 565.179 239.529 563.804C238.777 562.408 238.401 560.797 238.401 558.971C238.401 557.145 238.766 555.544 239.497 554.169C240.227 552.795 241.248 551.742 242.558 551.012C243.89 550.26 245.415 549.884 247.134 549.884C248.809 549.884 250.292 550.249 251.581 550.979C252.869 551.71 253.858 552.719 254.545 554.008C255.254 555.276 255.608 556.715 255.608 558.326ZM252.579 557.714C252.579 556.597 252.332 555.641 251.838 554.846C251.344 554.03 250.668 553.418 249.808 553.009C248.97 552.58 248.036 552.365 247.005 552.365C245.523 552.365 244.255 552.838 243.203 553.783C242.171 554.728 241.581 556.038 241.43 557.714H252.579ZM262.411 553.042C262.927 552.032 263.657 551.248 264.602 550.689C265.569 550.131 266.74 549.852 268.115 549.852V552.881H267.341C264.055 552.881 262.411 554.664 262.411 558.23V567.832H259.479V550.174H262.411V553.042ZM280.103 549.852C282.251 549.852 283.991 550.507 285.323 551.817C286.655 553.106 287.321 554.975 287.321 557.424V567.832H284.421V557.843C284.421 556.081 283.981 554.739 283.1 553.815C282.219 552.87 281.016 552.397 279.491 552.397C277.944 552.397 276.709 552.881 275.785 553.847C274.883 554.814 274.432 556.221 274.432 558.068V567.832H271.5V550.174H274.432V552.687C275.012 551.785 275.796 551.087 276.784 550.593C277.794 550.099 278.9 549.852 280.103 549.852ZM291.015 558.938C291.015 557.134 291.381 555.555 292.111 554.202C292.841 552.827 293.84 551.763 295.108 551.012C296.397 550.26 297.825 549.884 299.393 549.884C300.94 549.884 302.283 550.217 303.421 550.883C304.56 551.549 305.408 552.386 305.967 553.396V550.174H308.932V567.832H305.967V564.545C305.387 565.576 304.517 566.436 303.357 567.123C302.218 567.789 300.886 568.122 299.361 568.122C297.793 568.122 296.375 567.735 295.108 566.962C293.84 566.189 292.841 565.104 292.111 563.707C291.381 562.311 291.015 560.721 291.015 558.938ZM305.967 558.971C305.967 557.639 305.698 556.479 305.161 555.491C304.624 554.502 303.894 553.751 302.97 553.235C302.068 552.698 301.069 552.429 299.973 552.429C298.878 552.429 297.879 552.687 296.977 553.203C296.075 553.718 295.355 554.47 294.818 555.458C294.281 556.447 294.012 557.607 294.012 558.938C294.012 560.292 294.281 561.473 294.818 562.483C295.355 563.471 296.075 564.234 296.977 564.771C297.879 565.286 298.878 565.544 299.973 565.544C301.069 565.544 302.068 565.286 302.97 564.771C303.894 564.234 304.624 563.471 305.161 562.483C305.698 561.473 305.967 560.303 305.967 558.971ZM316.819 543.987V567.832H313.887V543.987H316.819ZM333.34 543.987V567.832H330.407V543.987H333.34ZM339.852 547.306C339.293 547.306 338.821 547.113 338.434 546.726C338.047 546.339 337.854 545.867 337.854 545.308C337.854 544.75 338.047 544.277 338.434 543.89C338.821 543.504 339.293 543.31 339.852 543.31C340.389 543.31 340.84 543.504 341.205 543.89C341.592 544.277 341.785 544.75 341.785 545.308C341.785 545.867 341.592 546.339 341.205 546.726C340.84 547.113 340.389 547.306 339.852 547.306ZM341.27 550.174V567.832H338.337V550.174H341.27ZM354.871 549.852C357.019 549.852 358.759 550.507 360.091 551.817C361.423 553.106 362.089 554.975 362.089 557.424V567.832H359.189V557.843C359.189 556.081 358.748 554.739 357.867 553.815C356.987 552.87 355.784 552.397 354.259 552.397C352.712 552.397 351.477 552.881 350.553 553.847C349.651 554.814 349.199 556.221 349.199 558.068V567.832H346.267V550.174H349.199V552.687C349.779 551.785 350.564 551.087 351.552 550.593C352.561 550.099 353.668 549.852 354.871 549.852ZM376.739 567.832L369.811 560.034V567.832H366.879V543.987H369.811V558.004L376.61 550.174H380.702L372.389 558.971L380.735 567.832H376.739ZM389.713 568.122C388.36 568.122 387.146 567.896 386.072 567.445C384.998 566.973 384.15 566.328 383.527 565.512C382.904 564.674 382.56 563.718 382.495 562.644H385.524C385.61 563.525 386.019 564.245 386.749 564.803C387.501 565.362 388.478 565.641 389.681 565.641C390.798 565.641 391.679 565.394 392.323 564.9C392.968 564.406 393.29 563.783 393.29 563.031C393.29 562.257 392.946 561.688 392.259 561.323C391.572 560.936 390.508 560.56 389.069 560.195C387.759 559.851 386.684 559.508 385.847 559.164C385.03 558.799 384.321 558.273 383.72 557.585C383.14 556.876 382.85 555.952 382.85 554.814C382.85 553.912 383.118 553.085 383.655 552.333C384.193 551.581 384.955 550.99 385.943 550.56C386.931 550.109 388.059 549.884 389.327 549.884C391.282 549.884 392.861 550.378 394.064 551.366C395.267 552.354 395.911 553.708 395.997 555.426H393.065C393 554.502 392.624 553.761 391.937 553.203C391.271 552.644 390.369 552.365 389.23 552.365C388.177 552.365 387.34 552.591 386.717 553.042C386.094 553.493 385.782 554.084 385.782 554.814C385.782 555.394 385.965 555.877 386.33 556.264C386.717 556.629 387.189 556.93 387.748 557.166C388.328 557.381 389.123 557.628 390.132 557.907C391.4 558.251 392.431 558.595 393.226 558.938C394.021 559.261 394.697 559.755 395.256 560.421C395.836 561.087 396.137 561.957 396.158 563.031C396.158 563.997 395.89 564.868 395.352 565.641C394.815 566.414 394.053 567.026 393.065 567.478C392.098 567.907 390.981 568.122 389.713 568.122ZM415.139 568.122C413.786 568.122 412.572 567.896 411.498 567.445C410.424 566.973 409.576 566.328 408.953 565.512C408.33 564.674 407.986 563.718 407.921 562.644H410.95C411.036 563.525 411.445 564.245 412.175 564.803C412.927 565.362 413.904 565.641 415.107 565.641C416.224 565.641 417.105 565.394 417.749 564.9C418.394 564.406 418.716 563.783 418.716 563.031C418.716 562.257 418.372 561.688 417.685 561.323C416.998 560.936 415.934 560.56 414.495 560.195C413.185 559.851 412.11 559.508 411.273 559.164C410.456 558.799 409.747 558.273 409.146 557.585C408.566 556.876 408.276 555.952 408.276 554.814C408.276 553.912 408.544 553.085 409.081 552.333C409.619 551.581 410.381 550.99 411.369 550.56C412.357 550.109 413.485 549.884 414.753 549.884C416.708 549.884 418.287 550.378 419.49 551.366C420.693 552.354 421.337 553.708 421.423 555.426H418.491C418.426 554.502 418.05 553.761 417.363 553.203C416.697 552.644 415.795 552.365 414.656 552.365C413.603 552.365 412.766 552.591 412.143 553.042C411.52 553.493 411.208 554.084 411.208 554.814C411.208 555.394 411.391 555.877 411.756 556.264C412.143 556.629 412.615 556.93 413.174 557.166C413.754 557.381 414.549 557.628 415.558 557.907C416.826 558.251 417.857 558.595 418.652 558.938C419.447 559.261 420.123 559.755 420.682 560.421C421.262 561.087 421.563 561.957 421.584 563.031C421.584 563.997 421.315 564.868 420.778 565.641C420.241 566.414 419.479 567.026 418.491 567.478C417.524 567.907 416.407 568.122 415.139 568.122ZM441.384 550.174V567.832H438.452V565.222C437.893 566.124 437.109 566.833 436.099 567.349C435.111 567.843 434.016 568.09 432.813 568.09C431.438 568.09 430.202 567.811 429.107 567.252C428.011 566.672 427.141 565.813 426.497 564.674C425.874 563.536 425.562 562.15 425.562 560.517V550.174H428.462V560.131C428.462 561.871 428.903 563.213 429.784 564.159C430.664 565.082 431.867 565.544 433.393 565.544C434.961 565.544 436.196 565.061 437.098 564.094C438 563.127 438.452 561.72 438.452 559.873V550.174H441.384ZM449.267 553.428C449.847 552.419 450.706 551.581 451.845 550.915C453.005 550.228 454.348 549.884 455.873 549.884C457.441 549.884 458.859 550.26 460.126 551.012C461.415 551.763 462.425 552.827 463.155 554.202C463.886 555.555 464.251 557.134 464.251 558.938C464.251 560.721 463.886 562.311 463.155 563.707C462.425 565.104 461.415 566.189 460.126 566.962C458.859 567.735 457.441 568.122 455.873 568.122C454.369 568.122 453.037 567.789 451.877 567.123C450.739 566.436 449.869 565.587 449.267 564.578V576.21H446.335V550.174H449.267V553.428ZM461.254 558.938C461.254 557.607 460.986 556.447 460.449 555.458C459.912 554.47 459.181 553.718 458.257 553.203C457.355 552.687 456.356 552.429 455.261 552.429C454.187 552.429 453.188 552.698 452.264 553.235C451.362 553.751 450.631 554.513 450.073 555.523C449.536 556.511 449.267 557.66 449.267 558.971C449.267 560.303 449.536 561.473 450.073 562.483C450.631 563.471 451.362 564.234 452.264 564.771C453.188 565.286 454.187 565.544 455.261 565.544C456.356 565.544 457.355 565.286 458.257 564.771C459.181 564.234 459.912 563.471 460.449 562.483C460.986 561.473 461.254 560.292 461.254 558.938ZM471.043 553.428C471.623 552.419 472.482 551.581 473.621 550.915C474.781 550.228 476.123 549.884 477.649 549.884C479.217 549.884 480.635 550.26 481.902 551.012C483.191 551.763 484.201 552.827 484.931 554.202C485.661 555.555 486.027 557.134 486.027 558.938C486.027 560.721 485.661 562.311 484.931 563.707C484.201 565.104 483.191 566.189 481.902 566.962C480.635 567.735 479.217 568.122 477.649 568.122C476.145 568.122 474.813 567.789 473.653 567.123C472.514 566.436 471.644 565.587 471.043 564.578V576.21H468.111V550.174H471.043V553.428ZM483.03 558.938C483.03 557.607 482.761 556.447 482.224 555.458C481.687 554.47 480.957 553.718 480.033 553.203C479.131 552.687 478.132 552.429 477.036 552.429C475.962 552.429 474.963 552.698 474.04 553.235C473.137 553.751 472.407 554.513 471.848 555.523C471.311 556.511 471.043 557.66 471.043 558.971C471.043 560.303 471.311 561.473 471.848 562.483C472.407 563.471 473.137 564.234 474.04 564.771C474.963 565.286 475.962 565.544 477.036 565.544C478.132 565.544 479.131 565.286 480.033 564.771C480.957 564.234 481.687 563.471 482.224 562.483C482.761 561.473 483.03 560.292 483.03 558.938ZM497.588 568.122C495.934 568.122 494.43 567.746 493.076 566.994C491.745 566.242 490.692 565.179 489.919 563.804C489.167 562.408 488.791 560.797 488.791 558.971C488.791 557.166 489.177 555.577 489.951 554.202C490.746 552.805 491.82 551.742 493.173 551.012C494.526 550.26 496.041 549.884 497.717 549.884C499.392 549.884 500.907 550.26 502.26 551.012C503.613 551.742 504.677 552.795 505.45 554.169C506.245 555.544 506.642 557.145 506.642 558.971C506.642 560.797 506.234 562.408 505.418 563.804C504.623 565.179 503.538 566.242 502.163 566.994C500.788 567.746 499.263 568.122 497.588 568.122ZM497.588 565.544C498.64 565.544 499.628 565.297 500.552 564.803C501.476 564.309 502.217 563.568 502.776 562.58C503.356 561.592 503.646 560.389 503.646 558.971C503.646 557.553 503.366 556.35 502.808 555.362C502.249 554.374 501.519 553.643 500.617 553.171C499.714 552.676 498.737 552.429 497.684 552.429C496.61 552.429 495.622 552.676 494.72 553.171C493.839 553.643 493.13 554.374 492.593 555.362C492.056 556.35 491.787 557.553 491.787 558.971C491.787 560.41 492.045 561.624 492.561 562.612C493.098 563.6 493.807 564.341 494.688 564.835C495.568 565.308 496.535 565.544 497.588 565.544ZM513.43 553.042C513.946 552.032 514.676 551.248 515.621 550.689C516.588 550.131 517.759 549.852 519.134 549.852V552.881H518.36C515.073 552.881 513.43 554.664 513.43 558.23V567.832H510.498V550.174H513.43V553.042ZM526.095 552.591V562.999C526.095 563.858 526.278 564.47 526.643 564.835C527.008 565.179 527.642 565.351 528.544 565.351H530.703V567.832H528.061C526.428 567.832 525.204 567.456 524.387 566.704C523.571 565.952 523.163 564.717 523.163 562.999V552.591H520.875V550.174H523.163V545.727H526.095V550.174H530.703V552.591H526.095ZM550.367 558.326C550.367 558.885 550.335 559.476 550.271 560.099H536.157C536.264 561.839 536.855 563.203 537.929 564.191C539.025 565.158 540.346 565.641 541.893 565.641C543.16 565.641 544.213 565.351 545.051 564.771C545.91 564.169 546.511 563.375 546.855 562.386H550.013C549.54 564.083 548.595 565.469 547.177 566.543C545.76 567.596 543.998 568.122 541.893 568.122C540.217 568.122 538.713 567.746 537.382 566.994C536.071 566.242 535.04 565.179 534.288 563.804C533.536 562.408 533.16 560.797 533.16 558.971C533.16 557.145 533.526 555.544 534.256 554.169C534.986 552.795 536.007 551.742 537.317 551.012C538.649 550.26 540.174 549.884 541.893 549.884C543.568 549.884 545.051 550.249 546.34 550.979C547.628 551.71 548.617 552.719 549.304 554.008C550.013 555.276 550.367 556.715 550.367 558.326ZM547.338 557.714C547.338 556.597 547.091 555.641 546.597 554.846C546.103 554.03 545.427 553.418 544.567 553.009C543.729 552.58 542.795 552.365 541.764 552.365C540.282 552.365 539.014 552.838 537.962 553.783C536.93 554.728 536.34 556.038 536.189 557.714H547.338ZM553.142 558.938C553.142 557.134 553.508 555.555 554.238 554.202C554.968 552.827 555.967 551.763 557.235 551.012C558.524 550.26 559.963 549.884 561.553 549.884C562.927 549.884 564.206 550.206 565.387 550.85C566.569 551.473 567.471 552.301 568.094 553.332V543.987H571.058V567.832H568.094V564.513C567.514 565.566 566.655 566.436 565.516 567.123C564.378 567.789 563.046 568.122 561.52 568.122C559.952 568.122 558.524 567.735 557.235 566.962C555.967 566.189 554.968 565.104 554.238 563.707C553.508 562.311 553.142 560.721 553.142 558.938ZM568.094 558.971C568.094 557.639 567.825 556.479 567.288 555.491C566.751 554.502 566.021 553.751 565.097 553.235C564.195 552.698 563.196 552.429 562.1 552.429C561.005 552.429 560.006 552.687 559.104 553.203C558.201 553.718 557.482 554.47 556.945 555.458C556.408 556.447 556.139 557.607 556.139 558.938C556.139 560.292 556.408 561.473 556.945 562.483C557.482 563.471 558.201 564.234 559.104 564.771C560.006 565.286 561.005 565.544 562.1 565.544C563.196 565.544 564.195 565.286 565.097 564.771C566.021 564.234 566.751 563.471 567.288 562.483C567.825 561.473 568.094 560.303 568.094 558.971Z" fill="white"/>
<path d="M163.187 608.427C163.55 608.813 163.745 609.327 163.729 609.856C163.713 610.386 163.487 610.887 163.102 611.25L141.98 631.158C141.549 631.564 140.977 631.785 140.385 631.774C139.794 631.763 139.23 631.521 138.815 631.1L131.677 623.855C131.488 623.669 131.337 623.447 131.235 623.203C131.132 622.959 131.079 622.696 131.079 622.431C131.079 622.166 131.131 621.904 131.234 621.659C131.336 621.415 131.486 621.193 131.674 621.007C131.863 620.821 132.087 620.674 132.333 620.576C132.579 620.477 132.842 620.428 133.107 620.432C133.372 620.436 133.633 620.493 133.876 620.599C134.119 620.705 134.338 620.858 134.521 621.05L140.472 627.088L160.364 608.342C160.749 607.979 161.264 607.784 161.793 607.8C162.322 607.816 162.824 608.041 163.187 608.427Z" fill="white"/>
<path d="M202.941 630.675C201.459 630.675 200.127 630.417 198.945 629.901C197.785 629.364 196.872 628.634 196.206 627.71C195.54 626.765 195.197 625.68 195.175 624.456H198.301C198.408 625.508 198.838 626.4 199.59 627.13C200.363 627.839 201.48 628.194 202.941 628.194C204.337 628.194 205.433 627.85 206.228 627.162C207.044 626.454 207.452 625.551 207.452 624.456C207.452 623.596 207.216 622.898 206.743 622.361C206.271 621.824 205.68 621.416 204.971 621.137C204.262 620.857 203.306 620.557 202.103 620.235C200.621 619.848 199.429 619.461 198.526 619.074C197.646 618.688 196.883 618.086 196.238 617.27C195.615 616.432 195.304 615.315 195.304 613.919C195.304 612.694 195.615 611.609 196.238 610.664C196.861 609.719 197.731 608.989 198.849 608.473C199.987 607.958 201.287 607.7 202.748 607.7C204.853 607.7 206.571 608.226 207.903 609.279C209.257 610.331 210.019 611.728 210.191 613.468H206.969C206.861 612.608 206.41 611.857 205.615 611.212C204.821 610.546 203.768 610.213 202.458 610.213C201.233 610.213 200.234 610.535 199.461 611.18C198.687 611.803 198.301 612.684 198.301 613.822C198.301 614.638 198.526 615.304 198.977 615.82C199.45 616.336 200.019 616.733 200.685 617.012C201.373 617.27 202.329 617.571 203.553 617.914C205.035 618.323 206.228 618.731 207.13 619.139C208.032 619.526 208.805 620.138 209.45 620.976C210.094 621.792 210.417 622.909 210.417 624.327C210.417 625.422 210.127 626.454 209.547 627.42C208.967 628.387 208.107 629.171 206.969 629.773C205.83 630.374 204.488 630.675 202.941 630.675ZM216.246 609.923C215.688 609.923 215.215 609.73 214.828 609.343C214.442 608.956 214.248 608.484 214.248 607.925C214.248 607.367 214.442 606.894 214.828 606.507C215.215 606.121 215.688 605.927 216.246 605.927C216.783 605.927 217.234 606.121 217.6 606.507C217.986 606.894 218.18 607.367 218.18 607.925C218.18 608.484 217.986 608.956 217.6 609.343C217.234 609.73 216.783 609.923 216.246 609.923ZM217.664 612.791V630.449H214.732V612.791H217.664ZM243.897 612.469C245.271 612.469 246.496 612.759 247.57 613.339C248.644 613.897 249.493 614.746 250.116 615.884C250.739 617.023 251.05 618.409 251.05 620.041V630.449H248.15V620.46C248.15 618.699 247.71 617.356 246.829 616.432C245.97 615.487 244.799 615.014 243.317 615.014C241.791 615.014 240.578 615.508 239.675 616.497C238.773 617.463 238.322 618.87 238.322 620.718V630.449H235.422V620.46C235.422 618.699 234.982 617.356 234.101 616.432C233.242 615.487 232.071 615.014 230.588 615.014C229.063 615.014 227.85 615.508 226.947 616.497C226.045 617.463 225.594 618.87 225.594 620.718V630.449H222.662V612.791H225.594V615.337C226.174 614.413 226.947 613.704 227.914 613.21C228.902 612.716 229.987 612.469 231.168 612.469C232.651 612.469 233.961 612.802 235.1 613.468C236.238 614.134 237.087 615.111 237.645 616.4C238.139 615.154 238.956 614.187 240.094 613.5C241.233 612.812 242.5 612.469 243.897 612.469ZM258.792 616.046C259.372 615.036 260.232 614.198 261.37 613.532C262.53 612.845 263.873 612.501 265.398 612.501C266.966 612.501 268.384 612.877 269.652 613.629C270.941 614.381 271.95 615.444 272.681 616.819C273.411 618.172 273.776 619.751 273.776 621.556C273.776 623.339 273.411 624.928 272.681 626.325C271.95 627.721 270.941 628.806 269.652 629.579C268.384 630.353 266.966 630.739 265.398 630.739C263.894 630.739 262.563 630.406 261.403 629.74C260.264 629.053 259.394 628.204 258.792 627.195V638.827H255.86V612.791H258.792V616.046ZM270.779 621.556C270.779 620.224 270.511 619.064 269.974 618.076C269.437 617.087 268.706 616.336 267.783 615.82C266.88 615.304 265.882 615.047 264.786 615.047C263.712 615.047 262.713 615.315 261.789 615.852C260.887 616.368 260.157 617.13 259.598 618.14C259.061 619.128 258.792 620.277 258.792 621.588C258.792 622.92 259.061 624.091 259.598 625.1C260.157 626.088 260.887 626.851 261.789 627.388C262.713 627.904 263.712 628.161 264.786 628.161C265.882 628.161 266.88 627.904 267.783 627.388C268.706 626.851 269.437 626.088 269.974 625.1C270.511 624.091 270.779 622.909 270.779 621.556ZM280.568 606.604V630.449H277.636V606.604H280.568ZM301.677 620.943C301.677 621.502 301.645 622.093 301.581 622.716H287.467C287.574 624.456 288.165 625.82 289.239 626.808C290.335 627.775 291.656 628.258 293.203 628.258C294.47 628.258 295.523 627.968 296.36 627.388C297.22 626.787 297.821 625.992 298.165 625.004H301.323C300.85 626.701 299.905 628.086 298.487 629.16C297.069 630.213 295.308 630.739 293.203 630.739C291.527 630.739 290.023 630.363 288.691 629.611C287.381 628.86 286.35 627.796 285.598 626.421C284.846 625.025 284.47 623.414 284.47 621.588C284.47 619.762 284.835 618.161 285.566 616.787C286.296 615.412 287.317 614.359 288.627 613.629C289.959 612.877 291.484 612.501 293.203 612.501C294.878 612.501 296.36 612.866 297.649 613.597C298.938 614.327 299.927 615.337 300.614 616.626C301.323 617.893 301.677 619.332 301.677 620.943ZM298.648 620.331C298.648 619.214 298.401 618.258 297.907 617.463C297.413 616.647 296.736 616.035 295.877 615.627C295.039 615.197 294.105 614.982 293.074 614.982C291.591 614.982 290.324 615.455 289.271 616.4C288.24 617.345 287.65 618.656 287.499 620.331H298.648ZM313.043 621.588C313.043 619.762 313.408 618.172 314.139 616.819C314.869 615.444 315.879 614.381 317.168 613.629C318.478 612.877 319.971 612.501 321.647 612.501C323.816 612.501 325.599 613.027 326.996 614.08C328.413 615.133 329.348 616.593 329.799 618.462H326.641C326.34 617.388 325.75 616.54 324.869 615.917C324.01 615.294 322.935 614.982 321.647 614.982C319.971 614.982 318.618 615.562 317.586 616.722C316.555 617.861 316.04 619.483 316.04 621.588C316.04 623.715 316.555 625.358 317.586 626.518C318.618 627.678 319.971 628.258 321.647 628.258C322.935 628.258 324.01 627.957 324.869 627.356C325.728 626.754 326.319 625.895 326.641 624.778H329.799C329.326 626.582 328.381 628.032 326.963 629.128C325.546 630.202 323.773 630.739 321.647 630.739C319.971 630.739 318.478 630.363 317.168 629.611C315.879 628.86 314.869 627.796 314.139 626.421C313.408 625.046 313.043 623.435 313.043 621.588ZM341.413 630.739C339.759 630.739 338.255 630.363 336.902 629.611C335.57 628.86 334.517 627.796 333.744 626.421C332.992 625.025 332.616 623.414 332.616 621.588C332.616 619.783 333.003 618.194 333.776 616.819C334.571 615.423 335.645 614.359 336.998 613.629C338.352 612.877 339.866 612.501 341.542 612.501C343.217 612.501 344.732 612.877 346.085 613.629C347.439 614.359 348.502 615.412 349.275 616.787C350.07 618.161 350.468 619.762 350.468 621.588C350.468 623.414 350.059 625.025 349.243 626.421C348.448 627.796 347.363 628.86 345.989 629.611C344.614 630.363 343.088 630.739 341.413 630.739ZM341.413 628.161C342.465 628.161 343.454 627.914 344.377 627.42C345.301 626.926 346.042 626.185 346.601 625.197C347.181 624.209 347.471 623.006 347.471 621.588C347.471 620.17 347.192 618.967 346.633 617.979C346.074 616.991 345.344 616.26 344.442 615.788C343.54 615.294 342.562 615.047 341.51 615.047C340.435 615.047 339.447 615.294 338.545 615.788C337.664 616.26 336.955 616.991 336.418 617.979C335.881 618.967 335.613 620.17 335.613 621.588C335.613 623.027 335.87 624.241 336.386 625.229C336.923 626.217 337.632 626.958 338.513 627.452C339.394 627.925 340.36 628.161 341.413 628.161ZM362.927 612.469C365.075 612.469 366.815 613.124 368.147 614.434C369.479 615.723 370.144 617.592 370.144 620.041V630.449H367.244V620.46C367.244 618.699 366.804 617.356 365.923 616.432C365.042 615.487 363.839 615.014 362.314 615.014C360.768 615.014 359.532 615.498 358.609 616.464C357.706 617.431 357.255 618.838 357.255 620.686V630.449H354.323V612.791H357.255V615.304C357.835 614.402 358.619 613.704 359.608 613.21C360.617 612.716 361.724 612.469 362.927 612.469ZM382.12 615.208H378.414V630.449H375.482V615.208H373.194V612.791H375.482V611.534C375.482 609.558 375.987 608.119 376.997 607.216C378.028 606.293 379.671 605.831 381.927 605.831V608.28C380.638 608.28 379.725 608.538 379.188 609.053C378.672 609.547 378.414 610.374 378.414 611.534V612.791H382.12V615.208ZM387.054 609.923C386.495 609.923 386.022 609.73 385.636 609.343C385.249 608.956 385.056 608.484 385.056 607.925C385.056 607.367 385.249 606.894 385.636 606.507C386.022 606.121 386.495 605.927 387.054 605.927C387.591 605.927 388.042 606.121 388.407 606.507C388.794 606.894 388.987 607.367 388.987 607.925C388.987 608.484 388.794 608.956 388.407 609.343C388.042 609.73 387.591 609.923 387.054 609.923ZM388.471 612.791V630.449H385.539V612.791H388.471ZM400.751 612.501C402.277 612.501 403.608 612.834 404.747 613.5C405.907 614.166 406.766 615.004 407.325 616.013V612.791H410.289V630.836C410.289 632.447 409.946 633.876 409.258 635.122C408.571 636.389 407.583 637.377 406.294 638.086C405.026 638.795 403.544 639.149 401.847 639.149C399.527 639.149 397.593 638.602 396.047 637.506C394.5 636.41 393.587 634.917 393.308 633.027H396.208C396.53 634.101 397.196 634.96 398.206 635.605C399.215 636.271 400.429 636.604 401.847 636.604C403.458 636.604 404.768 636.099 405.778 635.089C406.809 634.08 407.325 632.662 407.325 630.836V627.13C406.745 628.161 405.886 629.021 404.747 629.708C403.608 630.396 402.277 630.739 400.751 630.739C399.183 630.739 397.755 630.353 396.466 629.579C395.198 628.806 394.199 627.721 393.469 626.325C392.739 624.928 392.373 623.339 392.373 621.556C392.373 619.751 392.739 618.172 393.469 616.819C394.199 615.444 395.198 614.381 396.466 613.629C397.755 612.877 399.183 612.501 400.751 612.501ZM407.325 621.588C407.325 620.256 407.056 619.096 406.519 618.108C405.982 617.12 405.252 616.368 404.328 615.852C403.426 615.315 402.427 615.047 401.331 615.047C400.236 615.047 399.237 615.304 398.335 615.82C397.432 616.336 396.713 617.087 396.176 618.076C395.639 619.064 395.37 620.224 395.37 621.556C395.37 622.909 395.639 624.091 396.176 625.1C396.713 626.088 397.432 626.851 398.335 627.388C399.237 627.904 400.236 628.161 401.331 628.161C402.427 628.161 403.426 627.904 404.328 627.388C405.252 626.851 405.982 626.088 406.519 625.1C407.056 624.091 407.325 622.92 407.325 621.588ZM430.905 612.791V630.449H427.973V627.839C427.414 628.741 426.63 629.45 425.62 629.966C424.632 630.46 423.537 630.707 422.334 630.707C420.959 630.707 419.724 630.428 418.628 629.869C417.532 629.289 416.662 628.43 416.018 627.291C415.395 626.153 415.084 624.767 415.084 623.135V612.791H417.984V622.748C417.984 624.488 418.424 625.831 419.305 626.776C420.186 627.7 421.389 628.161 422.914 628.161C424.482 628.161 425.717 627.678 426.619 626.711C427.522 625.745 427.973 624.338 427.973 622.49V612.791H430.905ZM438.788 615.659C439.304 614.649 440.034 613.865 440.98 613.307C441.946 612.748 443.117 612.469 444.492 612.469V615.498H443.718C440.432 615.498 438.788 617.281 438.788 620.847V630.449H435.856V612.791H438.788V615.659ZM446.781 621.556C446.781 619.751 447.146 618.172 447.877 616.819C448.607 615.444 449.606 614.381 450.874 613.629C452.162 612.877 453.591 612.501 455.159 612.501C456.706 612.501 458.049 612.834 459.187 613.5C460.326 614.166 461.174 615.004 461.733 616.013V612.791H464.697V630.449H461.733V627.162C461.153 628.194 460.283 629.053 459.123 629.74C457.984 630.406 456.652 630.739 455.127 630.739C453.559 630.739 452.141 630.353 450.874 629.579C449.606 628.806 448.607 627.721 447.877 626.325C447.146 624.928 446.781 623.339 446.781 621.556ZM461.733 621.588C461.733 620.256 461.464 619.096 460.927 618.108C460.39 617.12 459.66 616.368 458.736 615.852C457.834 615.315 456.835 615.047 455.739 615.047C454.644 615.047 453.645 615.304 452.742 615.82C451.84 616.336 451.121 617.087 450.584 618.076C450.046 619.064 449.778 620.224 449.778 621.556C449.778 622.909 450.046 624.091 450.584 625.1C451.121 626.088 451.84 626.851 452.742 627.388C453.645 627.904 454.644 628.161 455.739 628.161C456.835 628.161 457.834 627.904 458.736 627.388C459.66 626.851 460.39 626.088 460.927 625.1C461.464 624.091 461.733 622.92 461.733 621.588ZM473.229 615.208V625.616C473.229 626.475 473.412 627.087 473.777 627.452C474.142 627.796 474.776 627.968 475.678 627.968H477.837V630.449H475.195C473.562 630.449 472.338 630.073 471.521 629.321C470.705 628.57 470.297 627.334 470.297 625.616V615.208H468.009V612.791H470.297V608.344H473.229V612.791H477.837V615.208H473.229ZM482.904 609.923C482.346 609.923 481.873 609.73 481.487 609.343C481.1 608.956 480.907 608.484 480.907 607.925C480.907 607.367 481.1 606.894 481.487 606.507C481.873 606.121 482.346 605.927 482.904 605.927C483.442 605.927 483.893 606.121 484.258 606.507C484.645 606.894 484.838 607.367 484.838 607.925C484.838 608.484 484.645 608.956 484.258 609.343C483.893 609.73 483.442 609.923 482.904 609.923ZM484.322 612.791V630.449H481.39V612.791H484.322ZM497.021 630.739C495.367 630.739 493.863 630.363 492.51 629.611C491.178 628.86 490.125 627.796 489.352 626.421C488.6 625.025 488.224 623.414 488.224 621.588C488.224 619.783 488.611 618.194 489.384 616.819C490.179 615.423 491.253 614.359 492.607 613.629C493.96 612.877 495.474 612.501 497.15 612.501C498.826 612.501 500.34 612.877 501.694 613.629C503.047 614.359 504.11 615.412 504.884 616.787C505.678 618.161 506.076 619.762 506.076 621.588C506.076 623.414 505.668 625.025 504.851 626.421C504.057 627.796 502.972 628.86 501.597 629.611C500.222 630.363 498.697 630.739 497.021 630.739ZM497.021 628.161C498.074 628.161 499.062 627.914 499.986 627.42C500.909 626.926 501.651 626.185 502.209 625.197C502.789 624.209 503.079 623.006 503.079 621.588C503.079 620.17 502.8 618.967 502.241 617.979C501.683 616.991 500.952 616.26 500.05 615.788C499.148 615.294 498.17 615.047 497.118 615.047C496.044 615.047 495.056 615.294 494.153 615.788C493.273 616.26 492.564 616.991 492.027 617.979C491.49 618.967 491.221 620.17 491.221 621.588C491.221 623.027 491.479 624.241 491.994 625.229C492.531 626.217 493.24 626.958 494.121 627.452C495.002 627.925 495.969 628.161 497.021 628.161ZM518.535 612.469C520.683 612.469 522.423 613.124 523.755 614.434C525.087 615.723 525.753 617.592 525.753 620.041V630.449H522.853V620.46C522.853 618.699 522.412 617.356 521.532 616.432C520.651 615.487 519.448 615.014 517.923 615.014C516.376 615.014 515.141 615.498 514.217 616.464C513.315 617.431 512.864 618.838 512.864 620.686V630.449H509.931V612.791H512.864V615.304C513.444 614.402 514.228 613.704 515.216 613.21C516.226 612.716 517.332 612.469 518.535 612.469Z" fill="white"/>
<path d="M1261.4 759.6C1266.2 759.6 1270.81 761.475 1274.25 764.827C1277.68 768.179 1279.67 772.741 1279.79 777.539C1279.91 782.338 1278.15 786.994 1274.89 790.513C1271.63 794.033 1267.11 796.137 1262.32 796.377L1261.4 796.4H1252.2C1251.33 796.399 1250.48 796.067 1249.85 795.471C1249.21 794.874 1248.82 794.057 1248.76 793.185C1248.7 792.313 1248.97 791.451 1249.52 790.772C1250.08 790.094 1250.86 789.651 1251.73 789.532L1252.2 789.5H1261.4C1264.39 789.507 1267.26 788.35 1269.42 786.273C1271.57 784.197 1272.82 781.365 1272.92 778.377C1273.02 775.389 1271.95 772.48 1269.94 770.268C1267.93 768.055 1265.14 766.711 1262.15 766.523L1261.4 766.5H1252.2C1251.33 766.499 1250.48 766.167 1249.85 765.571C1249.21 764.974 1248.82 764.157 1248.76 763.285C1248.7 762.413 1248.97 761.551 1249.52 760.872C1250.08 760.194 1250.86 759.751 1251.73 759.632L1252.2 759.6H1261.4ZM1233.8 759.6C1234.67 759.6 1235.52 759.932 1236.15 760.529C1236.79 761.125 1237.18 761.942 1237.24 762.814C1237.3 763.687 1237.03 764.549 1236.48 765.227C1235.92 765.905 1235.14 766.348 1234.27 766.467L1233.8 766.5H1224.6C1221.61 766.492 1218.74 767.649 1216.58 769.726C1214.43 771.802 1213.18 774.634 1213.08 777.622C1212.98 780.61 1214.05 783.519 1216.06 785.732C1218.07 787.945 1220.86 789.288 1223.85 789.477L1224.6 789.5H1233.8C1234.67 789.5 1235.52 789.832 1236.15 790.429C1236.79 791.025 1237.18 791.842 1237.24 792.714C1237.3 793.587 1237.03 794.449 1236.48 795.127C1235.92 795.805 1235.14 796.248 1234.27 796.367L1233.8 796.4H1224.6C1219.8 796.4 1215.19 794.524 1211.75 791.172C1208.32 787.821 1206.33 783.259 1206.21 778.46C1206.09 773.661 1207.85 769.005 1211.11 765.486C1214.37 761.967 1218.89 759.863 1223.68 759.623L1224.6 759.6H1233.8ZM1225.75 774.55H1260.25C1261.12 774.55 1261.97 774.882 1262.6 775.479C1263.24 776.075 1263.63 776.892 1263.69 777.764C1263.75 778.637 1263.48 779.499 1262.93 780.177C1262.37 780.855 1261.59 781.298 1260.72 781.417L1260.25 781.45H1225.75C1224.88 781.449 1224.03 781.117 1223.4 780.521C1222.76 779.924 1222.37 779.107 1222.31 778.235C1222.25 777.363 1222.52 776.501 1223.07 775.822C1223.63 775.144 1224.41 774.701 1225.28 774.582L1225.75 774.55Z" fill="white"/>
</g>
<defs>
<clipPath id="clip0_117_1100">
<rect width="1330" height="888" rx="24" fill="white"/>
</clipPath>
</defs>
</svg>
